<svg id="Layer_1" height="512" viewBox="0 0 150 150" width="512" xmlns="http://www.w3.org/2000/svg" data-name="Layer 1"><circle cx="75" cy="75" fill="#3a556a" r="64"/><path d="m83.11 37.69h-30.74a6.17 6.17 0 0 0 -6.17 6.17v62.28a6.17 6.17 0 0 0 6.17 6.17h45.26a6.17 6.17 0 0 0 6.17-6.17v-47.76z" fill="#ebf0f3"/><g fill="#d5d6db"><path d="m83.11 52.2a6.18 6.18 0 0 0 6.17 6.18h14.52l-20.69-20.69z"/><path d="m54.23 67.49h41.54v2.55h-41.54z"/><path d="m54.23 77.25h41.54v2.55h-41.54z"/><path d="m54.23 87.01h41.54v2.55h-41.54z"/><path d="m54.23 96.77h21.34v2.55h-21.34z"/></g><path d="m54.23 46.56h15.23v15.23h-15.23z" fill="#27a2db"/><path d="m93.34 103-10.25-.11a2.47 2.47 0 0 1 -1.33-.27 1.27 1.27 0 0 1 -.55-.81.93.93 0 0 1 .16-.75 1.16 1.16 0 0 1 .88-.48 41.11 41.11 0 0 0 5.07-.46 19.87 19.87 0 0 1 5.92-.19l.16-3-.14.22a3.14 3.14 0 0 1 -2.26 1.48 1.9 1.9 0 0 1 -1.51-.63 3.59 3.59 0 0 1 -1.83 1.4 2.27 2.27 0 0 1 -1.47 0 1.58 1.58 0 0 1 -.51-.28 2.33 2.33 0 0 1 -.53.61 2.56 2.56 0 0 1 -2 .56 2.69 2.69 0 0 1 -.86-.31 8.72 8.72 0 0 1 -4 1.45.4.4 0 0 1 -.07-.79 7.72 7.72 0 0 0 3.41-1.17 3.28 3.28 0 0 1 -.92-1.79 4.82 4.82 0 0 1 .84-3.42c.86-1.31 2.55-2.5 4.24-2a.38.38 0 0 1 .29.36 8.72 8.72 0 0 1 -2.15 6 8.58 8.58 0 0 1 -.92.89l.27.07a1.69 1.69 0 0 0 1.34-.39 1.37 1.37 0 0 0 .53-1 .4.4 0 0 1 .39-.39.4.4 0 0 1 .4.38.67.67 0 0 0 .48.55 1.63 1.63 0 0 0 1 0 2.93 2.93 0 0 0 1.81-1.9.39.39 0 0 1 .48-.27.39.39 0 0 1 .28.48.63.63 0 0 0 .16.57 1 1 0 0 0 .88.4 2.42 2.42 0 0 0 1.62-1.17 5.75 5.75 0 0 0 .94-2.32l.02-1.52a.4.4 0 0 1 .39-.38.39.39 0 0 1 .39.37 6.54 6.54 0 0 1 -.07 1.4l-.32 6a.4.4 0 0 1 -.47.37 18.08 18.08 0 0 0 -6.1.12 42.35 42.35 0 0 1 -5.17.47.39.39 0 0 0 -.26.16v.13a.46.46 0 0 0 .2.29 1.86 1.86 0 0 0 .91.16l10.25.1a.4.4 0 0 1 0 .79zm-8.34-10.14a3.67 3.67 0 0 0 -2.79 1.78 4 4 0 0 0 -.72 2.86 2.57 2.57 0 0 0 .8 1.46 7.48 7.48 0 0 0 1-1 7.92 7.92 0 0 0 2-5.1z" fill="#3a556a"/><path d="m67 60.19a11.85 11.85 0 0 0 -.58-3.7c-.47-.9-2-1.3-2.73-1.44h-.28-.41-.52l-.7.31-.78-.44h-.51-.46-.17-.05c-.75.14-2.3.53-2.78 1.45a11.85 11.85 0 0 0 -.58 3.7z" fill="#e1e6e9"/><path d="m60.72 53.53h2.02v1.7h-2.02z" fill="#f7be56"/><path d="m59.57 51.23c.16 0 .33.22.39.56s0 .62-.2.64-.33-.22-.38-.55.03-.62.19-.65z" fill="#fcd462"/><path d="m63.89 51.23c-.16 0-.33.22-.39.56s0 .62.19.64.34-.22.39-.55-.03-.62-.19-.65z" fill="#fcd462"/><path d="m61.73 48.6c-1.14 0-2.06 1.29-2.06 2.87s.92 2.88 2.06 2.88 2.06-1.29 2.06-2.88-.92-2.87-2.06-2.87z" fill="#fcd462"/><path d="m61.22 60.19h1.02l-.27-3.71.56-.79-.8-.46-.81.46.57.79z" fill="#3a556a"/><path d="m62.74 54.42-1.01.81.85.94.64-1.2z" fill="#ebf0f3"/><path d="m60.72 54.42 1.01.81-.95.92-.54-1.18z" fill="#ebf0f3"/><path d="m59.84 52.15a3.5 3.5 0 0 1 0-.92 10.07 10.07 0 0 1 .16-1.23 2.3 2.3 0 0 0 2.61 0s.83.3.8.9.24.4.21 1.28h.18a6.2 6.2 0 0 0 .07-2.82 2 2 0 0 0 -1.65-1.22l-.69-.14a2.15 2.15 0 0 0 -2.14 2 7.7 7.7 0 0 0 .24 2.11z" fill="#3a556a"/></svg>