<svg width="48" height="42" viewBox="0 0 48 42" fill="none" xmlns="http://www.w3.org/2000/svg">
<rect y="3.00002" width="48" height="39" fill="#24292D"/>
<path d="M24 36H19.122L12.2667 23.2642H11.3171V21.5L12.2667 23.2642H16.1951H16.6829C20.9357 19.4346 13.2683 16.9906 16.1951 15.2453C19.122 13.5 6.43902 14.7736 6.43902 14.7736L4 11H18.1463C23.4465 15.6362 27.3895 17.921 18.8509 27.0378L24 36Z" fill="white"/>
<path d="M37.0483 10.8997L41.7306 10.847L34.4137 25.8667L34.5289 36.12L30.3593 36.1669L30.2647 27.7592L37.0483 10.8997ZM27.6494 11.0053L31.5535 20.7716L29.7582 25.2696L22.9671 11.058L27.6494 11.0053Z" fill="white"/>
<path d="M38.5 12L38.933 12.75H38.067L38.5 12Z" fill="black"/>
<path d="M37.5 12L37.933 12.75H37.067L37.5 12Z" fill="black"/>
<path d="M38.5 13L38.933 13.75H38.067L38.5 13Z" fill="black"/>
<path d="M39.5 12L39.933 12.75H39.067L39.5 12Z" fill="black"/>
</svg>
